<svg width="24" height="24" viewBox="0 0 24 24" fill="none" xmlns="http://www.w3.org/2000/svg">
<path d="M3.72017 2.78701L4.27017 4.65001H18.9242C20.7642 4.65001 22.1692 6.36701 21.6392 8.16001L19.9842 13.76C19.6322 14.953 18.5132 15.75 17.2692 15.75H8.11317C6.86917 15.75 5.75117 14.953 5.39817 13.76L2.28117 3.21201C2.2503 3.11675 2.23881 3.01627 2.24739 2.9165C2.25596 2.81673 2.28443 2.71969 2.33112 2.6311C2.3778 2.54251 2.44175 2.46416 2.5192 2.40068C2.59665 2.33721 2.68603 2.28988 2.78206 2.2615C2.87809 2.23312 2.97883 2.22425 3.07834 2.23543C3.17786 2.24661 3.27412 2.2776 3.36146 2.32658C3.44881 2.37556 3.52546 2.44153 3.58689 2.52061C3.64833 2.59969 3.69431 2.69027 3.72017 2.78701ZM13.2502 8.00001C13.2502 7.80109 13.1712 7.61033 13.0305 7.46968C12.8899 7.32902 12.6991 7.25001 12.5002 7.25001C12.3013 7.25001 12.1105 7.32902 11.9698 7.46968C11.8292 7.61033 11.7502 7.80109 11.7502 8.00001V9.25001H10.5002C10.3013 9.25001 10.1105 9.32902 9.96984 9.46968C9.82919 9.61033 9.75017 9.80109 9.75017 10C9.75017 10.1989 9.82919 10.3897 9.96984 10.5303C10.1105 10.671 10.3013 10.75 10.5002 10.75H11.7502V12C11.7502 12.0985 11.7696 12.196 11.8073 12.287C11.845 12.378 11.9002 12.4607 11.9698 12.5303C12.0395 12.6 12.1222 12.6552 12.2132 12.6929C12.3042 12.7306 12.4017 12.75 12.5002 12.75C12.5987 12.75 12.6962 12.7306 12.7872 12.6929C12.8782 12.6552 12.9609 12.6 13.0305 12.5303C13.1001 12.4607 13.1554 12.378 13.1931 12.287C13.2308 12.196 13.2502 12.0985 13.2502 12V10.75H14.5002C14.6991 10.75 14.8899 10.671 15.0305 10.5303C15.1712 10.3897 15.2502 10.1989 15.2502 10C15.2502 9.80109 15.1712 9.61033 15.0305 9.46968C14.8899 9.32902 14.6991 9.25001 14.5002 9.25001H13.2502V8.00001ZM8.50017 17.25C7.90344 17.25 7.33114 17.4871 6.90918 17.909C6.48723 18.331 6.25017 18.9033 6.25017 19.5C6.25017 20.0967 6.48723 20.669 6.90918 21.091C7.33114 21.513 7.90344 21.75 8.50017 21.75C9.09691 21.75 9.66921 21.513 10.0912 21.091C10.5131 20.669 10.7502 20.0967 10.7502 19.5C10.7502 18.9033 10.5131 18.331 10.0912 17.909C9.66921 17.4871 9.09691 17.25 8.50017 17.25ZM16.5002 17.25C15.9034 17.25 15.3311 17.4871 14.9092 17.909C14.4872 18.331 14.2502 18.9033 14.2502 19.5C14.2502 20.0967 14.4872 20.669 14.9092 21.091C15.3311 21.513 15.9034 21.75 16.5002 21.75C17.0969 21.75 17.6692 21.513 18.0912 21.091C18.5131 20.669 18.7502 20.0967 18.7502 19.5C18.7502 18.9033 18.5131 18.331 18.0912 17.909C17.6692 17.4871 17.0969 17.25 16.5002 17.25Z" fill="black"/>
</svg>
