<svg width="42" height="42" viewBox="0 0 42 42" fill="none" xmlns="http://www.w3.org/2000/svg">
<path d="M17.0625 21C17.0625 19.9557 17.4773 18.9542 18.2158 18.2158C18.9542 17.4773 19.9557 17.0625 21 17.0625C22.0443 17.0625 23.0458 17.4773 23.7842 18.2158C24.5227 18.9542 24.9375 19.9557 24.9375 21C24.9375 22.0443 24.5227 23.0458 23.7842 23.7842C23.0458 24.5227 22.0443 24.9375 21 24.9375C19.9557 24.9375 18.9542 24.5227 18.2158 23.7842C17.4773 23.0458 17.0625 22.0443 17.0625 21Z" fill="black"/>
<path fill-rule="evenodd" clip-rule="evenodd" d="M3.5 21C3.5 23.87 4.24375 24.8342 5.73125 26.768C8.701 30.625 13.6815 35 21 35C28.3185 35 33.299 30.625 36.2688 26.768C37.7563 24.836 38.5 23.8683 38.5 21C38.5 18.13 37.7563 17.1658 36.2688 15.232C33.299 11.375 28.3185 7 21 7C13.6815 7 8.701 11.375 5.73125 15.232C4.24375 17.1675 3.5 18.1317 3.5 21ZM21 14.4375C19.2595 14.4375 17.5903 15.1289 16.3596 16.3596C15.1289 17.5903 14.4375 19.2595 14.4375 21C14.4375 22.7405 15.1289 24.4097 16.3596 25.6404C17.5903 26.8711 19.2595 27.5625 21 27.5625C22.7405 27.5625 24.4097 26.8711 25.6404 25.6404C26.8711 24.4097 27.5625 22.7405 27.5625 21C27.5625 19.2595 26.8711 17.5903 25.6404 16.3596C24.4097 15.1289 22.7405 14.4375 21 14.4375Z" fill="black"/>
</svg>
