<svg width="24" height="21" viewBox="0 0 24 21" fill="none" xmlns="http://www.w3.org/2000/svg">
<g filter="url(#filter0_d_116_17)">
<path d="M5 18C4.45 18 3.97933 17.8043 3.588 17.413C3.19667 17.0217 3.00067 16.5507 3 16V2C3 1.45 3.196 0.979333 3.588 0.588C3.98 0.196667 4.45067 0.000666667 5 0H16.175C16.4417 0 16.696 0.0500001 16.938 0.15C17.18 0.25 17.3923 0.391667 17.575 0.575L20.425 3.425C20.6083 3.60833 20.75 3.821 20.85 4.063C20.95 4.305 21 4.559 21 4.825V16C21 16.55 20.8043 17.021 20.413 17.413C20.0217 17.805 19.5507 18.0007 19 18H5ZM14.125 14.125C14.7083 13.5417 15 12.8333 15 12C15 11.1667 14.7083 10.4583 14.125 9.875C13.5417 9.29167 12.8333 9 12 9C11.1667 9 10.4583 9.29167 9.875 9.875C9.29167 10.4583 9 11.1667 9 12C9 12.8333 9.29167 13.5417 9.875 14.125C10.4583 14.7083 11.1667 15 12 15C12.8333 15 13.5417 14.7083 14.125 14.125ZM7 7H14C14.2833 7 14.521 6.904 14.713 6.712C14.905 6.52 15.0007 6.28267 15 6V4C15 3.71667 14.904 3.47933 14.712 3.288C14.52 3.09667 14.2827 3.00067 14 3H7C6.71667 3 6.47933 3.096 6.288 3.288C6.09667 3.48 6.00067 3.71733 6 4V6C6 6.28333 6.096 6.521 6.288 6.713C6.48 6.905 6.71733 7.00067 7 7Z" fill="white"/>
</g>
<defs>
<filter id="filter0_d_116_17" x="-1" y="0" width="26" height="26" filterUnits="userSpaceOnUse" color-interpolation-filters="sRGB">
<feFlood flood-opacity="0" result="BackgroundImageFix"/>
<feColorMatrix in="SourceAlpha" type="matrix" values="0 0 0 0 0 0 0 0 0 0 0 0 0 0 0 0 0 0 127 0" result="hardAlpha"/>
<feOffset dy="4"/>
<feGaussianBlur stdDeviation="2"/>
<feComposite in2="hardAlpha" operator="out"/>
<feColorMatrix type="matrix" values="0 0 0 0 0 0 0 0 0 0 0 0 0 0 0 0 0 0 0.25 0"/>
<feBlend mode="normal" in2="BackgroundImageFix" result="effect1_dropShadow_116_17"/>
<feBlend mode="normal" in="SourceGraphic" in2="effect1_dropShadow_116_17" result="shape"/>
</filter>
</defs>
</svg>
